<svg id="visual" viewBox="0 0 450 900" width="450" height="900" xmlns="http://www.w3.org/2000/svg" xmlns:xlink="http://www.w3.org/1999/xlink" version="1.1"><path d="M0 369L18.8 351.5C37.7 334 75.3 299 112.8 321.7C150.3 344.3 187.7 424.7 225.2 485.2C262.7 545.7 300.3 586.3 337.8 550C375.3 513.7 412.7 400.3 431.3 343.7L450 287L450 0L431.3 0C412.7 0 375.3 0 337.8 0C300.3 0 262.7 0 225.2 0C187.7 0 150.3 0 112.8 0C75.3 0 37.7 0 18.8 0L0 0Z" fill="#FCAF3C" stroke-linecap="round" stroke-linejoin="miter"></path></svg>